<svg width="771" height="203" viewBox="0 0 771 203" fill="none" xmlns="http://www.w3.org/2000/svg">
<path d="M176.329 302.158C286.334 223.874 307.735 155.886 306.231 107.567C304.552 53.6399 273.589 0.0488355 291.792 -6.97463C303.447 -11.4727 326.922 6.35133 373.335 46.3505C514.08 167.642 530.306 203.737 571.101 206.387C628.253 210.11 635.886 141.826 716.289 128.504C775.343 118.722 836.402 144.75 880.475 169.759" stroke="#5A5A5A" stroke-opacity="0.3" stroke-width="0.633446" stroke-miterlimit="10"/>
<path d="M170.463 297.931C277.388 221.23 302.05 154.213 302.948 108.348C303.95 57.0921 274.156 6.16655 292.556 0.113712C304.385 -3.77888 327.466 13.8051 372.361 52.5647C508.79 170.335 525.862 206.89 566.248 209.133C623.523 212.139 628.002 139.349 708.487 123.562C710.242 123.217 711.977 122.898 713.73 122.618C771.615 113.416 833.448 139.424 878.197 164.203" stroke="#5A5A5A" stroke-opacity="0.3" stroke-width="0.633446" stroke-miterlimit="10"/>
<path d="M164.595 293.702C268.423 218.587 296.358 152.642 299.67 109.13C303.36 60.6291 274.748 12.305 293.337 7.22623C305.345 3.94359 328.034 21.2906 371.398 58.8091C503.478 173.052 521.43 210.2 561.401 211.909C618.814 214.363 620.117 136.815 700.682 118.576C702.45 118.176 704.211 117.776 706.003 117.455C764.502 106.961 829.218 133.325 875.929 158.608" stroke="#5A5A5A" stroke-opacity="0.3" stroke-width="0.633446" stroke-miterlimit="10"/>
<path d="M158.707 289.468C259.44 215.918 290.632 151.191 296.38 109.907C302.736 64.2566 275.349 18.4632 294.118 14.3632C306.313 11.6984 328.588 28.8049 370.429 65.078C498.164 175.803 516.98 213.474 556.538 214.715C614.081 216.519 612.205 134.227 692.852 113.545C694.641 113.085 696.431 112.631 698.241 112.243C757.04 99.6493 824.963 127.174 873.641 152.968" stroke="#5A5A5A" stroke-opacity="0.3" stroke-width="0.633446" stroke-miterlimit="10"/>
<path d="M152.745 284.504C250.301 212.679 284.698 149.423 292.921 110.312C301.88 67.7 275.817 24.4517 294.744 21.3383C307.119 19.301 328.967 36.1338 369.247 71.0891C492.526 178.066 512.198 216.195 551.311 216.967C608.955 218.105 603.88 131.172 684.55 108.093C686.362 107.579 688.177 107.064 690.022 106.611C749.241 92.3525 820.163 120.571 870.785 146.84" stroke="#5A5A5A" stroke-opacity="0.3" stroke-width="0.633446" stroke-miterlimit="10"/>
<path d="M146.778 279.515C241.152 209.417 278.697 147.799 289.465 110.707C300.921 71.2356 276.29 30.4553 295.376 28.3248C307.939 26.9236 329.35 43.4765 368.065 77.1116C486.886 180.328 507.414 218.911 546.082 219.222C603.819 219.683 595.538 128.065 676.243 102.618C678.077 102.04 679.909 101.458 681.789 100.955C741.43 85.0382 815.362 113.938 867.918 140.682" stroke="#5A5A5A" stroke-opacity="0.3" stroke-width="0.633446" stroke-miterlimit="10"/>
<path d="M140.808 274.491C231.99 206.121 272.595 146.315 285.999 111.084C299.788 74.8374 276.782 36.4676 296.005 35.3211C308.76 34.5595 329.733 50.8358 366.876 83.1384C481.23 182.583 502.619 221.62 540.837 221.471C598.678 221.245 587.17 124.905 667.915 97.0973C669.777 96.4567 671.625 95.8116 673.532 95.2544C733.596 77.6825 810.536 107.262 865.032 134.477" stroke="#5A5A5A" stroke-opacity="0.3" stroke-width="0.633446" stroke-miterlimit="10"/>
<path d="M134.835 269.436C222.821 202.8 258.607 141.128 282.537 111.447C290.249 75.9198 277.281 42.4967 296.643 42.3271C309.594 42.2146 330.121 58.1966 365.7 89.1836C475.576 184.843 497.824 224.328 535.596 223.726C593.534 222.801 578.788 121.701 659.581 91.5449C661.46 90.8442 663.337 90.1347 665.276 89.5184C725.773 70.2983 805.723 100.537 862.158 128.237" stroke="#5A5A5A" stroke-opacity="0.3" stroke-width="0.633446" stroke-miterlimit="10"/>
<path d="M128.856 264.35C213.642 199.453 251.488 138.736 279.072 111.796C288.134 78.9747 277.786 48.542 297.285 49.3468C310.434 49.8891 330.509 65.5738 364.515 95.2221C469.899 187.086 493.019 227.016 530.342 225.964C588.375 224.327 570.376 118.429 651.23 85.9348C653.129 85.1713 655.028 84.3986 656.999 83.7245C717.933 62.86 800.876 93.7591 859.265 121.939" stroke="#5A5A5A" stroke-opacity="0.3" stroke-width="0.633446" stroke-miterlimit="10"/>
<path d="M122.876 259.227C204.455 196.075 244.363 136.32 275.605 112.128C286.018 82.0224 278.3 54.6005 297.932 56.3756C311.279 57.5811 330.907 72.9684 363.335 101.275C464.241 189.333 488.212 229.699 525.084 228.201C583.215 225.843 561.944 115.113 642.87 80.2857C644.789 79.4607 646.713 78.6258 648.714 77.8924C710.089 55.3841 796.032 86.9358 856.37 115.602" stroke="#5A5A5A" stroke-opacity="0.3" stroke-width="0.633446" stroke-miterlimit="10"/>
<path d="M116.899 254.073C195.269 192.671 237.239 133.879 272.144 112.451C283.912 85.0737 278.825 60.683 298.586 63.4243C312.136 65.3028 331.314 80.3847 362.162 107.339C458.566 191.566 483.402 232.377 519.823 230.44C578.047 227.343 553.494 111.752 634.502 74.5982C636.443 73.7077 638.391 72.814 640.419 72.0197C702.243 47.8687 791.183 80.069 853.471 109.222" stroke="#5A5A5A" stroke-opacity="0.3" stroke-width="0.633446" stroke-miterlimit="10"/>
<path d="M110.92 248.882C186.069 189.242 230.115 131.413 268.689 112.766C281.811 88.1299 279.358 66.7896 299.25 70.4978C312.999 73.0583 331.725 87.8247 360.993 113.435C452.892 193.819 478.59 235.063 514.565 232.69C572.882 228.845 545.029 108.365 626.129 68.8862C628.091 67.9316 630.054 66.977 632.123 66.1281C694.4 40.3334 786.333 73.1758 850.573 102.821" stroke="#5A5A5A" stroke-opacity="0.3" stroke-width="0.633446" stroke-miterlimit="10"/>
<path d="M104.95 243.659C176.878 185.785 222.984 128.927 265.233 113.059C279.713 91.176 279.894 72.9096 299.925 77.5763C313.871 80.8259 332.147 95.2751 359.832 119.528C447.226 196.05 473.777 237.726 509.297 234.923C567.702 230.312 536.533 104.914 617.744 63.1182C619.724 62.0983 621.72 61.0825 623.816 60.1667C686.555 32.7353 781.472 66.2048 847.669 96.3503" stroke="#5A5A5A" stroke-opacity="0.3" stroke-width="0.633446" stroke-miterlimit="10"/>
<path d="M98.9953 238.404C167.688 182.307 215.864 126.427 261.792 113.36C277.628 94.2438 280.443 79.0665 300.615 84.6938C314.757 88.6395 332.583 102.762 358.682 125.65C441.547 198.297 468.967 240.401 504.035 237.166C562.527 231.778 528.023 101.435 609.353 57.3294C611.355 56.2431 613.376 55.1657 615.496 54.1906C678.696 25.1119 776.603 59.2264 844.763 89.8583" stroke="#5A5A5A" stroke-opacity="0.3" stroke-width="0.633446" stroke-miterlimit="10"/>
<path d="M93.048 233.12C158.509 178.809 208.758 123.913 258.363 113.658C275.559 97.3217 281.007 85.2562 301.325 91.8491C315.658 96.4965 333.037 110.287 357.539 131.807C435.874 200.552 464.149 243.07 498.77 239.416C557.34 233.236 519.5 97.9551 600.954 51.5218C602.975 50.371 605.023 49.2335 607.17 48.1963C670.841 17.4737 771.726 52.2195 841.831 83.3473" stroke="#5A5A5A" stroke-opacity="0.3" stroke-width="0.633446" stroke-miterlimit="10"/>
<path d="M87.1366 227.816C149.354 175.306 201.675 121.406 254.96 113.978C273.518 100.434 281.596 91.4988 302.061 99.0472C316.581 104.403 333.515 117.858 356.435 137.996C430.229 202.813 459.36 245.74 493.533 241.669C552.175 234.683 510.981 94.4461 592.577 45.7154C594.617 44.4982 596.69 43.3005 598.877 42.2007C663.006 9.82939 766.863 45.1967 838.918 76.8115" stroke="#5A5A5A" stroke-opacity="0.3" stroke-width="0.633446" stroke-miterlimit="10"/>
<path d="M82.2795 222.939C141.175 172.493 195.496 119.863 252.389 115.289C272.268 104.602 282.972 98.8463 303.565 107.312C318.247 113.35 334.719 126.398 356.013 145.05C425.171 205.618 455.116 248.733 488.795 244.269C547.426 236.501 502.929 92.0257 584.562 41.2301C586.618 39.951 588.715 38.7008 590.918 37.5459C655.455 3.71588 762.144 39.523 836.052 71.479" stroke="#5A5A5A" stroke-opacity="0.3" stroke-width="0.633446" stroke-miterlimit="10"/>
<path d="M77.4502 218.095C133.024 169.701 189.338 118.324 249.835 116.602C271.057 108.759 284.354 106.156 305.074 115.534C319.915 122.242 335.931 134.893 355.606 152.081C420.132 208.424 450.887 251.721 484.077 246.875C542.694 238.324 494.894 89.6394 576.577 36.8104C578.647 35.4701 580.769 34.1674 582.996 32.9564C647.929 -2.34184 757.423 33.9004 833.191 66.193" stroke="#5A5A5A" stroke-opacity="0.3" stroke-width="0.633446" stroke-miterlimit="10"/>
<path d="M72.6286 213.284C124.889 166.936 190.63 138.254 247.289 117.902C268.49 110.285 285.733 113.423 306.589 123.706C321.586 131.093 337.148 143.341 355.206 159.068C415.108 211.221 446.665 254.693 479.369 249.472C537.958 240.117 486.855 87.2338 568.598 32.3751C570.682 30.9773 572.833 29.6197 575.082 28.353C640.415 -8.39747 752.707 28.2789 830.329 60.898" stroke="#5A5A5A" stroke-opacity="0.3" stroke-width="0.633446" stroke-miterlimit="10"/>
<path d="M67.7992 208.495C116.751 164.151 177.519 120.273 244.73 119.167C268.976 118.769 287.087 120.622 308.086 131.808C323.235 139.87 338.344 151.718 354.788 165.996C410.078 213.986 442.432 257.636 474.655 252.045C533.213 241.886 478.809 84.8127 560.623 27.9362C562.725 26.4767 564.902 25.0724 567.176 23.746C633.018 -14.3331 748.008 22.657 827.477 55.6137" stroke="#5A5A5A" stroke-opacity="0.3" stroke-width="0.633446" stroke-miterlimit="10"/>
<path d="M62.9759 203.729C108.619 161.387 170.943 116.232 242.177 120.421C267.445 121.908 288.436 127.778 309.58 139.862C324.877 148.597 339.542 160.05 354.372 172.885C405.054 216.74 438.249 260.683 469.951 254.612C528.386 243.422 470.65 82.2854 552.664 23.5069C554.776 21.9838 556.981 20.5309 559.28 19.1481C625.486 -20.4315 743.309 17.0469 824.616 50.3417" stroke="#5A5A5A" stroke-opacity="0.3" stroke-width="0.633446" stroke-miterlimit="10"/>
<path d="M58.1554 198.987C100.501 158.634 164.771 112.163 239.622 121.661C352.464 135.985 412.629 267.788 465.253 257.17C525.242 245.067 459.474 71.2734 551.397 14.5523C617.964 -26.5223 738.627 11.4442 821.769 45.0828" stroke="#5A5A5A" stroke-opacity="0.3" stroke-width="0.633446" stroke-miterlimit="10"/>
</svg>
