<svg width="25" height="24" viewBox="0 0 25 24" fill="none" xmlns="http://www.w3.org/2000/svg">
<path d="M9.5 12L11.5 14L16 9.5M9.7019 20.6009C10.0297 20.5575 10.3607 20.6464 10.6218 20.8475L11.8251 21.7708C12.2228 22.0764 12.7761 22.0764 13.1727 21.7708L14.4215 20.812C14.6548 20.6331 14.9492 20.5542 15.2403 20.5931L16.8024 20.7986C17.299 20.8642 17.7779 20.5875 17.9701 20.1242L18.5712 18.6709C18.6834 18.3987 18.8989 18.1832 19.1711 18.0709L20.6243 17.4698C21.0876 17.2787 21.3643 16.7988 21.2987 16.3021L21.101 14.7966C21.0576 14.4688 21.1465 14.1377 21.3476 13.8766L22.2709 12.6733C22.5764 12.2755 22.5764 11.7222 22.2709 11.3256L21.312 10.0767C21.1332 9.84339 21.0543 9.54896 21.0932 9.25785L21.2987 7.69568C21.3643 7.19902 21.0876 6.72015 20.6243 6.52793L19.1711 5.92684C18.8989 5.81462 18.6834 5.59907 18.5712 5.32685L17.9701 3.87356C17.779 3.41024 17.299 3.13358 16.8024 3.19913L15.2403 3.40468C14.9492 3.44468 14.6548 3.36579 14.4226 3.18802L13.1738 2.22916C12.7761 1.92361 12.2228 1.92361 11.8262 2.22916L10.5774 3.18802C10.3441 3.36579 10.0496 3.44468 9.75856 3.40691L8.19647 3.20136C7.69984 3.1358 7.221 3.41246 7.02879 3.87578L6.42884 5.32907C6.31552 5.60018 6.09998 5.81573 5.82889 5.92906L4.37568 6.52904C3.91238 6.72126 3.63574 7.20013 3.70129 7.69679L3.90683 9.25897C3.9446 9.55007 3.86572 9.8445 3.68796 10.0767L2.72915 11.3256C2.42362 11.7233 2.42362 12.2767 2.72915 12.6733L3.68796 13.9222C3.86683 14.1555 3.94571 14.4499 3.90683 14.741L3.70129 16.3032C3.63574 16.7999 3.91238 17.2787 4.37568 17.471L5.82889 18.0721C6.10109 18.1843 6.31663 18.3998 6.42884 18.672L7.0299 20.1253C7.221 20.5887 7.70096 20.8653 8.19758 20.7998L9.7019 20.6009Z" stroke="#50C878" stroke-width="2" stroke-linecap="round" stroke-linejoin="round"/>
</svg>
