<svg width="50" height="50" viewBox="0 0 50 50" fill="none" xmlns="http://www.w3.org/2000/svg">
<rect x="1" y="1" width="48" height="48" rx="12" stroke="#38AEBF" stroke-miterlimit="0" stroke-linejoin="bevel"/>
<path fill-rule="evenodd" clip-rule="evenodd" d="M33 11.6667H34.3333C38.0134 11.6711 40.9956 14.6533 41 18.3333V34.3333C40.9956 38.0134 38.0134 40.9956 34.3333 41H15.6667C11.9866 40.9956 9.00441 38.0134 9 34.3333V18.3333C9.00441 14.6533 11.9866 11.6711 15.6667 11.6667H17V10.3333C17 9.59695 17.597 9 18.3333 9C19.0697 9 19.6667 9.59695 19.6667 10.3333V11.6667H30.3333V10.3333C30.3333 9.59695 30.9303 9 31.6667 9C32.403 9 33 9.59695 33 10.3333V11.6667ZM15.6668 14.3327C13.4577 14.3327 11.6668 16.1236 11.6668 18.3327V19.6661H38.3335V18.3327C38.3335 16.1236 36.5426 14.3327 34.3335 14.3327H15.6668ZM34.3335 38.3327H15.6668C13.4577 38.3327 11.6668 36.5419 11.6668 34.3327V22.3327H38.3335V34.3327C38.3335 36.5419 36.5426 38.3327 34.3335 38.3327ZM25 31C26.1046 31 27 30.1046 27 29C27 27.8954 26.1046 27 25 27C23.8954 27 23 27.8954 23 29C23 30.1046 23.8954 31 25 31ZM20.3332 29C20.3332 30.1046 19.4377 31 18.3332 31C17.2286 31 16.3332 30.1046 16.3332 29C16.3332 27.8954 17.2286 27 18.3332 27C19.4377 27 20.3332 27.8954 20.3332 29ZM31.6668 31C32.7714 31 33.6668 30.1046 33.6668 29C33.6668 27.8954 32.7714 27 31.6668 27C30.5623 27 29.6668 27.8954 29.6668 29C29.6668 30.1046 30.5623 31 31.6668 31Z" fill="#38AEBF"/>
</svg>
