<svg width="24" height="21" viewBox="0 0 24 21" fill="none" xmlns="http://www.w3.org/2000/svg">
<path d="M23.0054 8.39966C23.0301 8.31116 23.0594 8.22491 23.0804 8.13491C23.0849 8.11691 23.0864 8.09891 23.0909 8.08091C23.3051 7.21605 23.3043 6.31188 23.0884 5.44742C22.8726 4.58296 22.4483 3.78453 21.8526 3.12191C21.3034 2.38333 20.5877 1.78465 19.7638 1.37443C18.9398 0.964212 18.0308 0.754019 17.1104 0.760906H17.0714C16.9964 0.760906 16.9124 0.766156 16.8329 0.768406H16.7421C15.1571 0.855861 13.5815 1.07004 12.0306 1.40891L8.67288 0.872656H8.64663C7.04736 0.596357 5.40161 0.860225 3.96888 1.62266C3.16172 2.10911 2.46857 2.76339 1.93638 3.54116L1.90563 3.58241L1.88688 3.60866C1.18282 4.65308 0.799972 5.88079 0.785578 7.14028C0.771183 8.39977 1.12588 9.63591 1.80588 10.6962C1.79163 10.7217 1.78338 10.7502 1.76988 10.7764C1.70488 10.9064 1.64948 11.041 1.60413 11.1792C1.58013 11.2542 1.56213 11.3337 1.54488 11.4117C1.53138 11.4754 1.51788 11.5384 1.50888 11.6022C1.49963 11.6816 1.49412 11.7614 1.49238 11.8414C1.49238 11.9059 1.48488 11.9689 1.48788 12.0327C1.49313 12.1167 1.50288 12.1999 1.51638 12.2832C1.52538 12.3424 1.52988 12.4017 1.54338 12.4602C1.56588 12.5524 1.59588 12.6432 1.63038 12.7317C1.64763 12.7789 1.65888 12.8277 1.67988 12.8742C1.74138 13.0114 1.81638 13.1412 1.90488 13.2627C2.24421 13.7485 2.7449 14.0983 3.31788 14.2497C3.2965 14.5695 3.34974 14.8899 3.47338 15.1856C3.59703 15.4813 3.78772 15.7442 4.03038 15.9537C4.46016 16.3302 4.98727 16.5782 5.55138 16.6692C5.66763 17.0464 5.87163 17.3907 6.14613 17.6742C6.52063 18.0802 7.02677 18.3406 7.57488 18.4092C7.70538 18.8539 7.95288 19.2559 8.29188 19.5717C8.70963 19.9827 9.26913 20.2167 9.85488 20.2242C10.2857 20.2221 10.7088 20.1101 11.0841 19.8987C11.6421 20.2182 12.2961 20.3262 12.9276 20.2032C13.2591 20.1425 13.5731 20.0097 13.8475 19.8141C14.1219 19.6185 14.3499 19.365 14.5154 19.0714C14.5311 19.0467 14.5401 19.0249 14.5544 19.0002C15.1919 19.1307 15.8556 19.0159 16.4129 18.6792C16.9029 18.4025 17.276 17.9575 17.4629 17.4267C18.1334 17.4357 18.7829 17.1942 19.2831 16.7479C19.5572 16.5083 19.7701 16.2067 19.9039 15.8681C20.0378 15.5296 20.0888 15.1639 20.0526 14.8017C20.0526 14.7807 20.0474 14.7642 20.0459 14.7439C20.4373 14.6266 20.7894 14.4049 21.0644 14.1027C21.4199 13.7278 21.6487 13.2508 21.7187 12.7389C21.7887 12.2271 21.6962 11.7062 21.4544 11.2497C22.1287 10.4706 22.6388 9.56349 22.9544 8.58266C22.9724 8.52491 22.9874 8.46191 23.0054 8.39966ZM21.7214 7.12466C21.684 7.50175 21.6011 7.87294 21.4746 8.23016L21.4506 8.30516C21.2014 8.97238 20.8419 9.59301 20.3871 10.1412C18.0344 8.08766 14.6121 5.09066 14.3309 4.82216C14.006 4.51121 13.5746 4.33627 13.1249 4.33316C12.9854 4.33195 12.8466 4.35193 12.7131 4.39241C12.2376 4.54241 11.0691 4.91741 10.0491 5.29616C9.65913 5.44091 9.21363 5.07116 9.07788 4.75616C8.98788 4.56716 8.97288 4.35116 9.03438 4.15166C9.15663 3.93041 9.36213 3.76616 9.60513 3.69566C11.9123 2.88462 14.3228 2.40484 16.7646 2.27066H16.8554C16.9386 2.27066 17.0211 2.26466 17.0976 2.26316C17.6578 2.25394 18.2139 2.35935 18.7319 2.57291C19.5 2.92302 20.1743 3.44986 20.6999 4.11041C21.169 4.64134 21.4971 5.28173 21.6539 5.97266L21.6606 6.00716C21.6967 6.19179 21.7195 6.37876 21.7289 6.56666C21.7311 6.62741 21.7349 6.70391 21.7349 6.77141C21.7349 6.88016 21.7349 6.98816 21.7221 7.09541L21.7214 7.12466ZM3.00513 12.1189C2.99988 12.0867 2.99988 12.0514 2.99988 12.0177C2.99161 11.9454 2.99161 11.8724 2.99988 11.8002C3.00816 11.7576 3.01893 11.7155 3.03213 11.6742C3.04713 11.6074 3.06963 11.5422 3.09663 11.4799C3.12138 11.4349 3.14988 11.3914 3.18138 11.3509C3.22602 11.2778 3.28025 11.2109 3.34263 11.1522L3.34713 11.1484L4.75788 9.95216C4.85161 9.87998 4.95865 9.82698 5.07288 9.79621C5.18711 9.76544 5.30628 9.75748 5.42359 9.77281C5.54089 9.78813 5.65403 9.82643 5.75652 9.88552C5.85901 9.94461 5.94884 10.0233 6.02088 10.1172C6.07334 10.194 6.10739 10.2818 6.1204 10.3739C6.13341 10.466 6.12502 10.5598 6.09588 10.6482L3.88338 12.8037C3.73065 12.8064 3.57982 12.7695 3.44561 12.6965C3.3114 12.6236 3.19839 12.5171 3.11763 12.3874C3.0619 12.3067 3.02358 12.2152 3.00513 12.1189ZM4.89213 13.9152L7.31988 11.5497L7.30863 11.5384C7.44523 11.4704 7.59954 11.4463 7.75038 11.4694C7.94313 11.5219 8.11713 11.6299 8.24988 11.7799C8.38188 11.8924 8.47038 12.0469 8.50038 12.2179C8.51154 12.3911 8.47358 12.564 8.39088 12.7167C8.38323 12.7375 8.37672 12.7588 8.37138 12.7804L5.91813 15.1707C5.746 15.1782 5.57426 15.1486 5.41458 15.0839C5.25489 15.0192 5.11099 14.9209 4.99263 14.7957C4.89523 14.673 4.83419 14.5254 4.81642 14.3698C4.79866 14.2141 4.82488 14.0566 4.89213 13.9152ZM6.98088 16.2289L9.51588 13.7622C9.67713 13.7944 9.82488 13.8769 9.93738 13.9977C10.0929 14.1338 10.2011 14.3158 10.2464 14.5174C10.2582 14.6041 10.2544 14.6923 10.2351 14.7777L8.04288 16.9114C7.89662 16.9386 7.74586 16.928 7.6048 16.8808C7.46374 16.8335 7.33704 16.7512 7.23663 16.6414C7.1195 16.5264 7.03178 16.3849 6.98088 16.2289ZM9.33363 18.4879C9.19798 18.3681 9.09087 18.2195 9.02013 18.0529L11.0909 16.0377C11.2386 16.0864 11.3736 16.1667 11.4869 16.2724C11.5926 16.3569 11.6724 16.4694 11.7171 16.5972C11.7426 16.6917 11.7426 16.7913 11.7171 16.8859C11.6234 17.1884 11.4673 17.468 11.2589 17.7064L10.6919 18.3664H10.6964C10.6776 18.3784 10.6566 18.3837 10.6394 18.3972C10.4279 18.5902 10.1558 18.7034 9.86988 18.7174C9.66799 18.714 9.47548 18.6316 9.33363 18.4879ZM12.6891 18.7182C12.5781 18.7354 12.4664 18.7407 12.3546 18.7332L12.4101 18.6687L12.4281 18.6469L12.4289 18.6477C12.6562 18.3667 12.8486 18.0592 13.0019 17.7319L13.3334 18.0829C13.3062 18.1536 13.2736 18.222 13.2359 18.2877C13.1824 18.3955 13.1056 18.4901 13.011 18.5646C12.9165 18.639 12.8065 18.6915 12.6891 18.7182ZM17.4891 15.9244L16.1549 14.4462C16.0403 14.3121 15.8821 14.2228 15.7082 14.1938C15.5342 14.1649 15.3556 14.1983 15.2039 14.2881C15.0521 14.3778 14.9368 14.5183 14.8784 14.6847C14.82 14.851 14.8221 15.0327 14.8844 15.1977C14.9191 15.2912 14.9721 15.3769 15.0404 15.4497L16.1174 16.6497C16.1099 16.7262 16.0941 16.8019 16.0701 16.8747C16.0077 17.0871 15.8652 17.267 15.6726 17.3764C15.4382 17.5302 15.1536 17.5882 14.8776 17.5384L13.9776 16.5829C13.8805 16.4807 13.7563 16.4082 13.6195 16.3738C13.4828 16.3394 13.3391 16.3446 13.2051 16.3887C13.1935 16.3158 13.1777 16.2437 13.1579 16.1727C13.0341 15.7808 12.8037 15.431 12.4926 15.1624C12.2747 14.9635 12.025 14.8026 11.7539 14.6862C11.7591 14.5466 11.7503 14.4069 11.7276 14.2692C11.6309 13.7584 11.3743 13.2917 10.9949 12.9364C10.7191 12.6571 10.3781 12.4509 10.0026 12.3364C10.0064 12.2359 10.0026 12.1362 9.99138 12.0364C9.92129 11.5313 9.67982 11.0655 9.30738 10.7172C8.96824 10.3621 8.53257 10.1142 8.05413 10.0039C7.89138 9.97249 7.72539 9.96115 7.55988 9.97016C7.50102 9.69156 7.38199 9.42919 7.21113 9.20141C7.01859 8.95136 6.77861 8.74174 6.50496 8.58456C6.2313 8.42737 5.92933 8.3257 5.61632 8.28536C5.30332 8.24503 4.98544 8.26682 4.68087 8.34949C4.3763 8.43217 4.09103 8.57409 3.84138 8.76716L3.81513 8.78816L2.88888 9.56816C2.45457 8.77725 2.24676 7.8819 2.2883 6.98055C2.32985 6.07919 2.61915 5.20675 3.12438 4.45916L3.14013 4.43666C3.55078 3.82436 4.08943 3.30849 4.71888 2.92466C5.8671 2.32666 7.1819 2.12846 8.45538 2.36141L8.80338 2.41691C8.28924 2.64858 7.87855 3.06167 7.64988 3.57716C7.53934 3.85998 7.48676 4.16214 7.49527 4.46568C7.50377 4.76922 7.57318 5.06796 7.69938 5.34416C7.92404 5.88755 8.34303 6.32779 8.87465 6.57904C9.40627 6.83029 10.0124 6.87454 10.5749 6.70316C11.5649 6.33641 12.7004 5.96816 13.1249 5.83391C13.1586 5.83279 13.1922 5.8393 13.2231 5.85293C13.254 5.86656 13.2814 5.88697 13.3034 5.91266C13.6701 6.25766 18.0974 10.1329 19.9469 11.7447L20.0969 11.8729C20.2134 12.0615 20.2631 12.2838 20.2382 12.5041C20.2134 12.7244 20.1153 12.93 19.9596 13.0879C19.8528 13.2031 19.7124 13.2818 19.5584 13.3129L18.2586 11.9952C18.1172 11.8605 17.9289 11.7861 17.7336 11.7876C17.5383 11.7891 17.3513 11.8664 17.2119 12.0033C17.0725 12.1401 16.9918 12.3257 16.9867 12.5209C16.9816 12.7162 17.0526 12.9058 17.1846 13.0497L18.4266 14.3082C18.4319 14.3307 18.4379 14.3532 18.4446 14.3749L18.4536 14.3982C18.5099 14.5582 18.544 14.7253 18.5549 14.8947C18.5757 15.0232 18.5646 15.155 18.5227 15.2783C18.4807 15.4016 18.4091 15.5127 18.3141 15.6019C18.0899 15.8119 17.7936 15.9274 17.4869 15.9244H17.4891Z" fill="#B03CCD"/>
</svg>
